<svg width="49" height="48" viewBox="0 0 49 48" fill="none" xmlns="http://www.w3.org/2000/svg">
<circle cx="24.5" cy="24" r="24" fill="white"/>
<path d="M29.3125 34H17.7109V31.9258L22.1523 27.4258C23.0117 26.5508 23.7188 25.7969 24.2734 25.1641C24.8281 24.5234 25.2383 23.918 25.5039 23.3477C25.7773 22.7773 25.9141 22.1562 25.9141 21.4844C25.9141 20.6562 25.6758 20.0312 25.1992 19.6094C24.7227 19.1797 24.0938 18.9648 23.3125 18.9648C22.5703 18.9648 21.8828 19.1133 21.25 19.4102C20.625 19.6992 19.9766 20.1133 19.3047 20.6523L17.793 18.8359C18.2695 18.4297 18.7773 18.0586 19.3164 17.7227C19.8633 17.3867 20.4727 17.1211 21.1445 16.9258C21.8164 16.7227 22.582 16.6211 23.4414 16.6211C24.5273 16.6211 25.4648 16.8164 26.2539 17.207C27.043 17.5898 27.6484 18.125 28.0703 18.8125C28.5 19.5 28.7148 20.3008 28.7148 21.2148C28.7148 22.1367 28.5312 22.9883 28.1641 23.7695C27.7969 24.5508 27.2734 25.3242 26.5938 26.0898C25.9141 26.8477 25.1055 27.6719 24.168 28.5625L21.2031 31.457V31.5859H29.3125V34Z" fill="#1A1A1A"/>
</svg>
