<svg width="49" height="48" viewBox="0 0 49 48" fill="none" xmlns="http://www.w3.org/2000/svg">
<circle cx="24.5" cy="24" r="24" fill="white"/>
<path d="M28.6562 20.7812C28.6562 21.5547 28.5 22.2266 28.1875 22.7969C27.875 23.3672 27.4453 23.8359 26.8984 24.2031C26.3594 24.5625 25.7344 24.8203 25.0234 24.9766V25.0586C26.3906 25.2305 27.4219 25.6602 28.1172 26.3477C28.8203 27.0352 29.1719 27.9453 29.1719 29.0781C29.1719 30.0703 28.9336 30.957 28.457 31.7383C27.9805 32.5117 27.25 33.1211 26.2656 33.5664C25.2812 34.0117 24.0156 34.2344 22.4688 34.2344C21.5391 34.2344 20.6758 34.1602 19.8789 34.0117C19.0898 33.8633 18.3398 33.625 17.6289 33.2969V30.8477C18.3555 31.207 19.1289 31.4844 19.9492 31.6797C20.7695 31.875 21.5469 31.9727 22.2812 31.9727C23.7109 31.9727 24.7305 31.707 25.3398 31.1758C25.9492 30.6367 26.2539 29.8945 26.2539 28.9492C26.2539 28.3398 26.0938 27.8398 25.7734 27.4492C25.4609 27.0586 24.9727 26.7656 24.3086 26.5703C23.6523 26.375 22.8047 26.2773 21.7656 26.2773H20.2539V24.0625H21.7773C22.7695 24.0625 23.5664 23.9453 24.168 23.7109C24.7695 23.4688 25.2031 23.1367 25.4688 22.7148C25.7422 22.293 25.8789 21.8008 25.8789 21.2383C25.8789 20.5039 25.6406 19.9336 25.1641 19.5273C24.6875 19.1133 23.9805 18.9062 23.043 18.9062C22.4648 18.9062 21.9375 18.9727 21.4609 19.1055C20.9922 19.2383 20.5586 19.4062 20.1602 19.6094C19.7617 19.8125 19.3828 20.0312 19.0234 20.2656L17.6992 18.3555C18.3477 17.8711 19.1211 17.4609 20.0195 17.125C20.918 16.7891 21.9648 16.6211 23.1602 16.6211C24.918 16.6211 26.2734 17 27.2266 17.7578C28.1797 18.5078 28.6562 19.5156 28.6562 20.7812Z" fill="#1A1A1A"/>
</svg>
